<svg preserveAspectRatio="none" width="100%" height="100%" overflow="visible" style="display: block;" viewBox="0 0 122.232 276.672" fill="none" xmlns="http://www.w3.org/2000/svg">
<g id="Clip path frame">
<path id="Vector" d="M77.9946 48.0999C78.0968 47.9977 77.8925 48.3042 77.9946 48.0999Z" fill="var(--fill-0, #272727)"/>
<path id="Vector_2" d="M62.8761 26.75C62.8761 26.6479 62.7739 26.8522 62.8761 26.75Z" fill="var(--fill-0, #272727)"/>
<g id="Vector_3">
</g>
<path id="Vector_4" d="M75.4408 29.7125C75.543 29.5082 75.4408 29.6103 75.4408 29.7125Z" fill="var(--fill-0, #272727)"/>
<path id="Vector_5" d="M69.4138 47.8956L69.516 47.7934C69.516 47.6913 69.3117 47.9977 69.4138 47.8956Z" fill="var(--fill-0, #272727)"/>
<path id="Vector_6" d="M69.9246 46.9762C70.0267 46.874 70.0267 46.7719 69.9246 46.9762Z" fill="var(--fill-0, #272727)"/>
<path id="Vector_7" d="M96.0756 94.0684C96.0756 94.0684 96.0756 94.0684 95.9734 94.1705C95.9734 94.2727 96.0756 94.0684 96.0756 94.0684Z" fill="var(--fill-0, #272727)"/>
<path id="Vector_8" d="M81.1613 81.1972C81.0592 81.1972 81.0592 81.1972 81.1613 81.1972Z" fill="var(--fill-0, #272727)"/>
<g id="Vector_9">
</g>
<g id="Vector_10">
</g>
<path id="Vector_11" d="M14.9667 166.392L15.0688 166.29C15.171 166.188 14.9667 166.29 14.9667 166.392C14.8645 166.597 14.8645 166.494 14.9667 166.392Z" fill="var(--fill-0, #272727)"/>
<path id="Vector_12" d="M109.662 167.618C108.232 166.392 106.086 166.392 104.452 166.903C103.839 167.107 103.226 167.312 102.613 167.618C101.694 168.027 100.877 168.537 99.9573 169.048C98.8337 169.661 97.8121 170.478 97.1992 171.602C97.0971 171.602 97.0971 171.602 96.9949 171.602C93.011 173.543 88.9249 175.382 84.941 177.323C88.1077 172.828 88.9249 167.107 88.6184 161.591C89.2314 161.387 89.8443 161.08 90.355 160.672C92.0916 159.344 93.2153 157.096 93.1132 154.849C93.011 153.317 92.296 151.784 91.5809 150.456C90.968 149.333 90.0486 148.209 88.7206 147.903C87.3927 147.596 86.1668 148.413 85.3496 149.435C84.1238 151.069 83.613 153.215 83.3066 155.155C83.0001 157.301 83.0001 160.263 85.2475 161.489C85.8604 161.795 86.4733 161.898 87.0862 161.898C87.3926 167.72 86.7797 174.054 82.4893 178.14C82.3872 178.242 82.1829 178.446 82.0807 178.753C75.9516 181.919 70.0268 185.393 64.817 189.785C66.7579 186.108 68.188 182.226 69.1074 178.14C69.6182 178.14 70.0268 178.14 70.5375 177.833C71.4569 177.425 72.172 176.505 72.6827 175.688C73.3978 174.462 73.8064 173.032 74.0107 171.704C74.215 170.683 74.215 169.457 73.9085 168.435C73.7042 167.72 73.2956 167.005 72.5806 166.801C71.8655 166.494 71.0483 166.699 70.3332 167.107C69.3117 167.72 68.4945 168.64 67.8816 169.559C67.6773 169.763 67.5751 169.968 67.473 170.172C67.3708 170.274 67.3708 170.376 67.2687 170.478C67.1665 170.58 67.1665 170.683 67.1665 170.785C66.2471 172.521 65.8385 174.667 66.7579 176.505C66.9622 177.016 67.3708 177.425 67.8816 177.731C66.9622 182.737 64.9192 187.538 62.3654 191.828C62.2632 191.93 62.2632 192.032 62.2632 192.135C60.8331 193.463 59.4029 194.995 58.0749 196.527C56.6448 198.264 55.3168 200.102 54.091 202.043C55.2147 194.688 56.4405 187.333 57.7685 180.081C58.1771 178.344 58.4836 176.607 58.8922 174.871C58.9943 174.769 59.0965 174.564 59.0965 174.36C59.3008 173.236 59.5051 172.113 59.7094 170.989C61.1395 164.043 62.5697 157.096 63.7955 150.15C64.102 149.946 64.2041 149.639 64.2041 149.333C65.0213 145.757 66.8601 142.489 70.0268 140.446C71.3547 139.526 72.887 138.811 74.5215 138.402C74.7258 139.015 75.543 139.322 76.1559 139.526C76.871 139.73 77.586 139.73 78.199 139.73C79.0162 139.73 79.9356 139.73 80.7528 139.73C81.9786 139.628 83.2044 139.322 84.2259 138.709C85.7582 137.79 87.1883 135.849 86.269 134.01C85.9625 133.295 85.2475 132.988 84.5324 132.682C83.613 132.375 82.4893 132.478 81.57 132.784C81.3657 132.886 81.2635 132.886 81.0592 132.988C80.957 132.988 80.957 132.988 80.8549 132.988C79.1183 133.601 77.3817 134.419 75.8494 135.542C75.543 135.849 75.2365 136.155 75.0322 136.462C70.9461 137.483 67.3708 140.139 65.1235 143.714C64.9192 144.021 64.817 144.225 64.7149 144.532C65.3278 140.548 65.8385 136.666 66.2471 132.682C66.2471 132.58 66.3493 132.58 66.3493 132.478C67.7794 128.596 69.6182 124.918 71.6612 121.445C73.3978 120.117 76.0538 119.811 78.0968 119.606C79.9355 119.402 81.7743 119.402 83.613 119.402C83.613 119.709 83.7152 120.117 83.8173 120.424C84.3281 121.752 85.4518 122.671 86.5755 123.386C88.2099 124.408 90.1508 125.123 91.9895 125.429C93.3175 125.633 94.6455 125.633 95.8713 125.225C98.1186 124.305 99.4466 121.956 98.7315 119.606C97.9143 116.746 94.8498 115.214 92.1938 114.703C92.1938 114.703 92.1938 114.703 92.0916 114.703C89.3335 114.295 85.8603 114.601 84.2259 117.155C84.1237 117.257 84.1237 117.461 84.0216 117.563C81.9785 117.563 79.8333 117.666 77.7903 117.87C76.258 118.074 74.7257 118.381 73.2956 118.994C78.6075 111.332 85.5539 104.896 93.7261 99.891C94.0325 100.402 94.4411 100.81 95.2583 101.015C96.4842 101.219 97.8121 100.708 98.9358 100.3C100.877 99.4824 102.715 98.2566 104.35 96.8265C105.576 95.7028 106.904 94.3748 107.414 92.8426C107.721 91.821 107.823 90.5952 107.108 89.6758C106.393 88.8586 105.269 88.6543 104.248 88.6543C102.715 88.6543 101.285 89.0629 99.8552 89.778C99.5488 89.8801 99.1401 90.0844 98.7315 90.2887C96.4842 91.6167 94.5433 93.7619 93.7261 96.3157C93.5218 96.9286 93.4196 97.7459 93.4196 98.4609C88.312 101.628 83.613 105.203 79.5269 109.493C80.8549 105.816 81.6721 101.934 81.7743 97.9502C81.8764 96.3157 81.7743 94.6813 81.7743 93.0469C82.0807 93.0469 82.285 92.9447 82.5915 92.8426C85.0431 92.0253 86.0647 89.4715 86.0647 87.0199C86.0647 85.3854 85.9625 83.751 85.4517 82.2187C85.1453 81.1972 84.6345 80.1757 83.7151 79.5628C82.6936 78.9498 81.4678 79.3585 80.5484 79.9714C79.0161 81.1972 77.9946 83.2402 77.1774 84.9768C76.258 87.0199 76.0537 89.6758 77.6882 91.5146C78.4032 92.2296 79.3226 92.8425 80.3441 92.9447C80.3441 94.477 80.3441 96.0093 80.3441 97.6437C80.242 102.649 79.2204 107.552 77.0752 112.149C74.7258 114.805 72.4784 117.768 70.6397 120.832C70.2311 121.241 69.9246 121.547 69.6181 122.058C69.516 122.262 69.3117 122.671 69.4138 122.977C69.3117 123.08 69.3117 123.182 69.2095 123.284C68.2901 125.02 67.4729 126.655 66.6557 128.494C67.5751 118.891 67.8815 109.289 67.5751 99.6867C67.6772 99.5846 67.6772 99.3803 67.6772 99.2781C67.6772 97.4394 67.5751 95.4985 67.2686 93.6598C67.1665 92.4339 67.0643 91.106 66.9622 89.8801C66.4514 83.751 65.6342 77.6219 64.5105 71.5949C64.5105 71.3906 64.5105 71.2884 64.5105 71.0841C63.7954 66.5894 66.6557 62.4012 69.516 59.2345C71.8655 56.6806 74.5214 54.5354 77.3817 52.6967C77.8925 53.4118 78.6076 54.1268 79.4248 54.4333C80.5484 54.9441 81.8764 54.8419 83.0001 54.4333C85.7582 53.4118 88.0055 51.1644 89.64 48.8149C90.4572 47.7934 92.6024 43.8095 90.4572 42.9922C90.355 42.8901 90.355 42.8901 90.1508 42.8901C88.8228 42.6858 87.4948 42.8901 86.1668 43.1965C84.5324 43.503 83.0001 44.0138 81.4678 44.7288C79.0162 45.8525 75.8494 48.3042 76.7688 51.3687V51.4709C73.7042 53.5139 70.7418 55.9656 68.2902 58.7237C68.6988 56.885 68.9031 55.0462 69.0053 53.1053C69.0053 52.186 69.0053 51.2666 69.0053 50.3472C69.1074 50.2451 69.3117 50.1429 69.4139 50.0408C70.4354 49.2235 71.1505 47.8956 71.6612 46.6697C71.9677 45.8525 72.2741 45.0353 72.4784 44.2181C72.6827 43.6052 72.7849 42.8901 72.887 42.2772C73.0913 40.9492 73.1935 38.3954 71.2526 38.7019C70.5375 38.804 69.8225 39.3148 69.2095 39.7234C68.3923 40.3363 67.6773 41.1535 67.0643 41.9707C66.86 42.175 66.6557 42.4815 66.4514 42.788C65.3277 44.4224 65.0213 46.7719 65.7364 48.7128C66.0428 49.4279 66.4514 50.1429 67.0643 50.4494C67.1665 50.5515 67.3708 50.5515 67.4729 50.5515C67.4729 54.0247 67.5751 57.6 66.3493 60.9711C66.3493 61.0732 66.2471 61.1754 66.2471 61.3797C65.0213 63.1163 64.1019 64.955 63.489 66.8959C62.9782 64.4442 62.3653 61.9926 61.6502 59.6431C61.6502 59.5409 61.6502 59.4388 61.6502 59.3366C60.6287 53.9225 60.7309 48.4063 61.1395 42.8901C61.2416 42.7879 61.2416 42.6858 61.2416 42.5836C61.9567 40.4384 63.0804 38.2932 64.6127 36.6588C65.2256 36.0459 65.8385 35.5351 66.4514 35.0243C66.5536 35.3308 66.7579 35.5351 67.0643 35.7394C67.7794 36.3523 68.6988 36.3523 69.6181 36.2502C71.8655 35.8416 73.9085 34.3093 75.3387 32.5727C76.871 30.7339 78.1989 27.6694 76.258 25.6263C75.6451 24.9113 74.6236 25.0134 73.8064 25.1156C72.6827 25.3199 71.559 25.9328 70.6397 26.5457C68.4945 27.9758 66.2471 30.2232 66.0428 32.8791C66.0428 33.0834 66.0428 33.3899 66.0428 33.5942C64.1019 35.0243 62.5696 36.8631 61.446 39.0083C61.446 38.804 61.446 38.7018 61.446 38.4975C61.7524 35.5351 62.0589 32.4705 62.3653 29.5081C62.3653 29.4059 62.3653 29.2016 62.3653 29.0995C64.6127 28.2823 64.9191 24.8091 64.9191 22.7661C64.9191 21.1316 64.6127 19.4972 64.1019 17.8627C63.6933 16.5348 63.1825 15.2068 62.161 14.2874C62.0589 14.2874 62.0589 14.1853 61.9567 14.1853C60.118 12.9594 58.5857 15.4111 57.9728 16.9434C57.1556 19.4972 56.9513 22.3574 57.5642 25.0134C57.8706 26.6478 58.9943 28.9973 60.9352 29.3038C60.9352 29.7124 60.8331 30.121 60.8331 30.4275C60.5266 33.492 60.2201 36.5566 59.9137 39.7233C59.5051 43.9116 59.3008 48.202 59.4029 52.4924C59.0965 51.573 58.79 50.6536 58.4836 49.7343C57.1556 46.0568 55.6233 42.5836 53.8867 39.1104C53.2738 37.8846 52.5587 36.2502 51.6394 35.0243C51.8437 34.5136 51.9458 33.9007 52.048 33.3899C52.1501 30.8361 50.8221 28.078 49.392 25.9328C48.8812 25.1155 46.6339 21.5402 45.3059 22.6639C44.9995 22.8682 44.7951 23.1747 44.693 23.4811C43.7736 25.5242 44.4887 28.1801 45.2038 30.2232C45.9188 32.2662 46.9403 34.6157 48.6769 36.0459C49.0855 36.4545 49.6984 36.6588 50.3114 36.4545C52.6609 40.0298 54.2953 44.1159 55.9297 47.9977C56.134 48.5084 56.3383 49.0192 56.5427 49.6321C54.9082 48.7127 52.9673 48.3041 51.0264 48.0998C51.0264 47.8955 50.9243 47.6912 50.8221 47.4869C50.1071 45.9546 48.5748 44.7288 47.1447 43.9116C45.5102 42.9922 43.6715 42.3793 41.7306 42.0728C38.666 41.6642 33.8649 42.4814 34.0692 46.6697C34.2735 49.2235 37.1337 50.4493 39.1768 51.0622C41.8327 51.8795 44.7951 52.2881 47.5533 51.8795C48.7791 51.6752 50.1071 50.9601 50.72 49.9386C53.9889 50.3472 57.1556 51.4709 58.2792 54.6376C58.2792 54.7397 58.3814 54.8419 58.3814 54.8419C61.5481 64.6485 63.5912 74.8637 64.7148 85.079C62.161 78.8477 57.9728 73.4336 52.3544 69.3475C50.4135 68.0195 48.3705 66.8959 46.3274 65.8743C46.4296 64.0356 44.9995 62.1969 43.5693 61.1753C41.2198 59.5409 37.951 58.8258 35.0907 58.928C33.8649 58.928 32.5369 59.1323 31.5154 59.8474C30.3917 60.5624 29.8809 61.8904 30.3917 63.1162C31.924 65.9765 34.9885 67.8152 38.0531 68.7346C40.3004 69.4497 43.7736 69.9604 45.5102 67.9174L45.6124 67.8152C50.4135 70.1647 54.8061 73.4336 58.1771 77.5197C55.419 76.6003 52.3544 76.8046 49.4942 77.4175C49.2899 77.1111 48.9834 76.9068 48.6769 76.7025C47.8597 76.2939 46.8382 76.0895 45.9188 76.0895C44.8973 75.9874 43.8758 76.1917 42.8543 76.6003C41.322 77.3154 40.0962 78.8476 40.0962 80.5842C40.0962 81.2993 40.4026 82.0144 40.9134 82.5251C41.5263 83.0359 42.3435 83.138 43.0586 83.0359C45.1016 82.7294 47.5533 82.2187 48.9834 80.4821C49.392 80.0735 49.5963 79.5627 49.6985 79.052C53.376 78.3369 57.4621 78.439 60.3223 81.095C60.4245 81.1972 60.6288 81.1972 60.7309 81.1972C63.0804 84.8746 64.6127 88.9607 65.4299 93.2511C66.6557 110.311 65.6342 127.37 63.0804 144.225C62.4675 148.516 61.6503 152.908 60.8331 157.198C60.7309 157.403 60.6288 157.607 60.6288 157.709C60.3223 159.037 60.0158 160.467 59.7094 161.795C59.3008 157.505 58.3814 153.317 56.747 149.231C55.0104 144.838 52.6609 140.65 50.2093 136.564C48.7791 131.558 48.1662 126.451 48.4727 121.241C48.5748 118.687 48.7791 116.133 49.0856 113.579C49.1877 113.477 49.392 113.375 49.4942 113.273C50.6179 112.354 50.9243 110.719 51.2308 109.391C51.6394 107.552 51.7415 105.714 51.6394 103.773C51.5372 102.343 51.2308 100.81 50.6179 99.4825C50.2093 98.5631 49.6985 97.6437 48.8813 97.0308C48.0641 96.4179 47.1447 96.52 46.4296 97.2351C45.3059 98.2566 44.9995 99.8911 44.7952 101.321C44.4887 104.284 44.7952 107.45 45.8167 110.311C46.1232 111.23 46.7361 112.762 47.6554 113.375C47.4511 116.44 47.1447 119.402 46.9404 122.467C46.8382 125.94 47.0425 129.311 47.5533 132.58C45.8167 129.924 43.978 127.268 42.1392 124.714C38.3596 119.3 34.58 113.784 30.9025 108.165C30.8003 108.063 30.8003 108.063 30.6982 108.063C30.8003 107.961 30.8003 107.757 30.9025 107.655C31.2089 106.735 31.2089 105.714 30.9025 104.692C30.3917 102.649 29.1659 100.708 27.8379 99.176C27.3272 98.5631 26.6121 97.7459 25.7949 97.4394C24.9776 97.0308 24.2626 97.5416 23.854 98.2566C23.7518 98.3588 23.7518 98.4609 23.7518 98.5631C23.7518 98.6653 23.6497 98.7674 23.6497 98.8696C23.1389 101.117 23.854 103.466 24.9776 105.407C25.4884 106.429 26.1013 107.348 26.8164 108.165C27.3272 108.676 28.0422 109.391 28.8594 109.391C29.0637 109.391 29.268 109.391 29.4724 109.289C29.4724 109.493 29.4724 109.698 29.5745 109.8C35.3972 118.891 41.9349 127.574 47.7576 136.666C48.1662 137.279 48.4727 137.79 48.8813 138.402C47.0426 137.279 45.2038 136.257 43.2629 135.44C40.0962 133.908 36.7252 132.682 33.3542 131.558C33.3542 131.354 33.3542 131.15 33.3542 130.945C33.1499 130.026 32.5369 129.107 31.924 128.494C29.9831 126.553 27.3272 125.225 24.5691 124.816C24.2626 124.816 23.854 124.714 23.5476 124.714C22.3217 124.714 21.0959 124.816 20.0744 125.531C19.155 126.144 18.4399 127.166 18.3378 128.289C18.1335 130.741 20.5851 132.375 22.526 133.193C24.2626 133.908 26.1014 134.316 27.9401 134.419C29.2681 134.521 30.8004 134.521 31.9241 133.908C32.2305 133.703 32.4348 133.601 32.6391 133.397C35.8058 134.521 38.9726 135.644 41.935 136.972C45.4081 138.505 48.9835 140.343 51.6394 143.101C52.5588 144.838 53.4782 146.575 54.2954 148.311C52.8653 147.494 51.333 146.983 49.6986 146.677C48.4727 146.37 47.1447 146.268 45.8168 146.166C45.8168 145.757 45.7146 145.247 45.4082 144.838C44.9996 144.225 44.2845 143.714 43.5694 143.408C42.6501 142.999 41.6285 142.795 40.7092 142.795C40.4027 142.795 40.1984 142.795 39.8919 142.795C37.6446 142.897 35.4994 143.714 34.1714 145.655C33.6606 146.37 33.4563 147.29 33.6606 148.209C33.7628 148.924 34.3757 149.537 34.9886 149.844C35.908 150.354 37.0317 150.456 37.951 150.354C39.4833 150.252 41.1178 149.946 42.5479 149.435C43.4672 149.128 44.3866 148.618 44.9995 147.903C46.2254 148.107 47.4512 148.209 48.677 148.413C51.333 148.924 53.8868 149.946 55.7255 152.091C55.8277 152.193 55.8277 152.193 55.9298 152.193C56.8492 154.849 57.6664 157.505 58.075 160.263C58.4836 163.021 58.5858 165.677 58.4836 168.435C57.6664 172.521 56.8492 176.71 56.1341 180.796C54.6018 188.151 52.9674 195.506 51.5373 202.861C50.3114 208.888 49.2899 215.017 48.3705 221.146C46.9404 213.587 43.7737 206.64 39.6876 200.102V200C38.3596 196.323 37.951 192.543 38.4618 188.661C38.7682 186.005 39.279 183.349 39.7898 180.796C40.3005 180.694 40.7091 180.387 41.1177 179.978C42.3436 178.65 43.1608 176.914 43.6715 175.279C44.1823 173.645 44.5909 171.908 44.5909 170.172C44.5909 168.231 43.978 165.473 41.8328 164.86C40.9134 164.553 39.9941 165.064 39.279 165.575C38.1553 166.392 37.4403 167.72 36.9295 169.048C36.623 169.355 36.5209 169.661 36.3166 170.07C35.8058 171.5 35.6015 173.032 35.7037 174.564C35.8058 175.892 36.0101 177.22 36.5209 178.446C36.9295 179.263 37.4402 180.285 38.3596 180.694C38.4618 180.694 38.4618 180.694 38.5639 180.796C38.0532 183.758 37.4402 186.72 37.0316 189.683C36.8273 191.828 36.8273 193.973 37.1338 196.119C36.2144 194.688 35.1929 193.36 34.1714 191.93C31.5154 188.253 28.6552 184.677 25.7949 181.102L25.8971 181C26.6121 179.978 26.51 178.548 26.1014 177.425C25.4884 175.484 24.3648 173.645 23.2411 172.011C21.811 169.865 20.2787 167.72 18.2356 166.086C17.3163 165.371 15.8861 164.553 14.7625 165.269C13.5366 165.984 13.0259 167.516 13.0259 168.844C12.9237 170.376 13.3323 172.011 13.9452 173.441C14.0474 173.747 14.2517 174.258 14.456 174.667C15.6818 177.22 17.9292 179.366 20.2787 180.796C21.3002 181.409 22.7303 182.124 23.9562 182.124C28.8595 188.151 33.8649 194.28 38.1553 200.92C38.1553 201.022 38.2575 201.124 38.2575 201.226C38.3596 201.43 38.4618 201.533 38.5639 201.533C39.8919 203.576 41.0156 205.721 42.1393 207.866C39.7898 206.232 36.9295 205.312 34.0693 204.495C30.9025 203.678 27.7358 202.963 24.6712 201.941C24.6712 200.92 24.1605 200 23.6497 199.183C22.0153 196.527 19.0529 194.893 15.9883 194.178C15.8861 194.075 15.784 193.973 15.6818 193.973C14.5582 193.769 13.128 193.667 12.1065 194.382C11.1872 194.995 10.5742 196.119 10.6764 197.242C10.8807 199.796 13.128 201.839 15.1711 203.167C16.6012 204.086 18.1335 204.699 19.7679 205.006C20.8916 205.21 22.1174 205.312 23.139 204.801C23.5476 204.597 23.9562 204.188 24.1605 203.78C26.9186 204.699 29.6767 205.21 32.4348 206.027C36.7252 207.151 41.4242 208.581 44.0802 212.463C44.1823 212.565 44.1823 212.565 44.2845 212.667C44.8974 214.302 45.5103 216.038 46.0211 217.775C46.8383 220.737 47.349 223.802 47.5534 226.866C46.2254 237.694 45.6125 248.625 46.4297 259.453C46.634 261.7 46.8383 263.948 47.1447 266.297C47.349 267.319 48.2684 266.604 48.5749 265.888C48.7792 266.808 50.2093 265.276 50.005 264.663C48.7792 260.066 48.9835 255.06 49.0856 250.361C49.2899 243.108 49.9028 235.958 50.6179 228.705C51.2308 222.882 51.9459 216.958 52.7631 211.135C54.6019 209.398 57.0535 208.479 59.3008 207.457C62.059 206.231 64.8171 205.108 67.3709 203.678C67.7795 204.291 68.3924 204.801 69.2096 204.904C70.6397 205.21 72.172 204.699 73.5 204.188C75.3387 203.473 77.1775 202.554 78.7098 201.124C80.6507 199.387 82.2851 196.323 80.855 193.769C80.3442 192.747 79.2205 192.134 78.0969 191.93C76.4624 191.624 74.9301 192.134 73.6022 192.952C70.9462 194.484 68.4946 196.936 67.473 199.796C67.1666 200.511 66.9623 201.43 67.0644 202.248C64.2042 203.78 61.2417 204.904 58.2793 206.231C56.3384 207.049 54.6018 207.968 52.9674 209.296C53.1717 208.07 53.2739 206.844 53.4782 205.619C56.747 199.592 61.2417 194.484 66.6558 190.296C68.4946 188.866 70.3333 187.538 72.2742 186.312C75.1344 185.29 77.9947 184.882 80.9571 185.699C82.3872 186.107 83.8174 186.72 85.2475 187.333C85.1454 188.253 85.2475 189.07 85.6561 189.887C86.269 191.113 87.1884 192.134 88.3121 192.952C89.4358 193.871 90.7637 194.688 92.296 194.893C94.6455 195.301 96.8929 194.177 97.9144 192.032C98.4252 191.011 98.5273 189.887 98.323 188.866C98.0166 187.742 97.3015 186.823 96.4843 186.107C96.0757 186.005 95.8713 185.903 95.5649 185.699C93.2154 184.371 90.0487 183.145 87.3927 184.269C86.7798 184.473 86.269 184.984 85.9626 185.495C84.6346 184.882 83.2045 184.269 81.6722 183.86C80.1399 183.452 78.5055 183.349 76.9732 183.452C79.9356 181.817 82.898 180.285 85.9626 178.855C89.5379 177.118 93.1132 175.586 96.6886 173.849C96.7907 174.258 97.0972 174.564 97.5058 174.871C98.5273 175.484 99.8553 175.484 100.979 175.484C101.49 175.382 101.898 175.279 102.307 175.279C103.839 175.177 105.474 174.973 107.006 174.36C108.027 173.951 109.049 173.338 109.764 172.521C110.377 171.806 110.786 170.887 110.683 169.967C110.683 168.742 110.275 168.129 109.662 167.618ZM86.984 159.957C86.6776 159.854 86.4732 159.854 86.3711 159.752C86.2689 159.65 86.1668 159.65 86.1668 159.548L86.0646 159.446C85.9624 159.344 85.7582 159.139 85.656 158.935C85.5538 158.833 85.5538 158.731 85.4517 158.629C85.4517 158.629 85.4517 158.526 85.3495 158.526C85.2474 158.322 85.3495 158.526 85.2474 158.424C84.7366 157.301 84.7366 156.075 84.9409 154.849C84.9409 154.747 84.9409 154.543 84.8388 154.44C84.9409 153.725 85.1452 152.908 85.3495 152.193C85.4517 151.887 85.5538 151.58 85.7581 151.274C85.7581 151.172 85.8603 151.172 85.8603 151.069C85.9624 150.967 86.0646 150.763 86.1667 150.661C86.1667 150.559 86.2689 150.559 86.2689 150.456C86.371 150.354 86.4732 150.252 86.4732 150.15L86.5754 150.048C86.5754 150.048 86.6775 149.946 86.7797 149.946C86.8818 149.946 86.984 149.844 87.0861 149.844C86.8818 149.946 87.1883 149.844 87.2904 149.844C87.2904 149.844 87.5969 149.741 87.4948 149.844C87.5969 149.844 87.6991 149.844 87.8012 149.844C88.7206 149.946 89.4356 150.661 90.0486 151.478C90.8658 152.602 91.4787 154.032 91.7852 155.36V155.462C91.7852 155.564 91.7852 155.666 91.7852 155.768C91.7852 155.87 91.7852 155.973 91.7852 156.075C91.7852 156.075 91.7852 156.177 91.7852 156.279C91.7852 156.483 91.683 156.688 91.683 156.892V156.994C91.683 157.096 91.5808 157.198 91.5808 157.301C91.5808 157.403 91.5808 157.403 91.4787 157.505C91.4787 157.505 91.4787 157.607 91.3765 157.607C91.2744 157.709 91.2744 157.811 91.1722 157.914C91.1722 157.914 91.1722 157.914 91.1722 158.016C91.1722 158.016 91.1722 158.016 91.0701 158.016C90.9679 158.22 90.8657 158.322 90.6615 158.424L90.5593 158.526C90.4571 158.629 90.355 158.731 90.355 158.731C90.2528 158.833 90.2528 158.833 90.1507 158.935C90.1507 158.935 89.8442 159.139 90.0485 159.037C89.8442 159.139 89.7421 159.242 89.5377 159.344C89.4356 159.344 89.3334 159.446 89.3334 159.446C89.3334 159.446 89.027 159.548 89.1291 159.548C89.2312 159.548 89.0269 159.548 88.9248 159.65C88.8226 159.65 88.7205 159.752 88.6183 159.752C88.5162 158.833 88.414 157.914 88.3119 157.096C88.2097 155.871 86.7796 157.096 86.8818 157.914C86.984 158.629 86.984 159.344 86.984 159.957ZM67.5751 174.973C67.5751 175.075 67.4729 174.871 67.5751 174.973C67.4729 174.769 67.3707 174.667 67.3707 174.667C67.2686 174.462 67.2686 174.258 67.2686 174.054V173.951C67.2686 173.849 67.2686 173.747 67.2686 173.645C67.2686 173.543 67.2686 173.441 67.2686 173.236C67.2686 173.236 67.2686 173.236 67.2686 173.134V173.032C67.2686 172.828 67.3707 172.521 67.3707 172.317C67.3707 172.215 67.3707 172.113 67.4729 172.113C67.4729 172.011 67.5751 171.908 67.5751 171.704C67.5751 171.704 67.5751 171.602 67.6772 171.602C67.6772 171.704 67.6772 171.704 67.7794 171.602C67.7794 171.602 67.7794 171.602 67.7794 171.5C67.9837 171.398 68.188 171.091 68.2901 170.989C68.3923 170.683 68.5966 170.478 68.8009 170.172C68.8009 170.07 68.9031 170.07 68.9031 169.968C69.0052 169.865 69.1074 169.763 69.2095 169.559C69.3117 169.457 69.3117 169.355 69.4138 169.355L69.516 169.252C69.7203 169.15 69.8224 168.946 70.0267 168.844L70.1289 168.742C70.2311 168.742 70.2311 168.64 70.3332 168.64C70.4354 168.64 70.5375 168.537 70.5375 168.537C70.5375 168.64 70.5375 168.537 70.6397 168.537C70.7419 168.537 70.9461 168.435 71.0483 168.435H71.1505C71.2526 168.435 71.2526 168.435 71.3548 168.435C71.4569 168.435 71.4569 168.435 71.5591 168.435H71.6612C71.7634 168.537 71.8656 168.537 71.9677 168.64C71.9677 168.64 71.9677 168.64 72.0699 168.64C72.0699 168.742 72.172 168.742 72.172 168.844C72.2742 168.946 72.3763 169.048 72.3763 169.252V169.355C72.3763 169.457 72.4785 169.457 72.4785 169.559C72.5806 169.763 72.5806 169.968 72.5806 170.172V170.274V170.376C72.5806 170.478 72.5806 170.58 72.5806 170.683C72.5806 170.887 72.5806 171.193 72.5806 171.398C72.5806 171.398 72.5806 171.602 72.5806 171.5C72.5806 171.5 72.5806 171.5 72.5806 171.602C72.5806 171.704 72.5806 171.908 72.4785 172.011C72.4785 172.317 72.3763 172.624 72.2742 172.93C72.2742 173.032 72.172 173.236 72.172 173.339C72.2742 173.134 72.172 173.441 72.172 173.441C72.172 173.543 72.172 173.645 72.0699 173.645C71.9677 173.951 71.8655 174.258 71.7634 174.462C71.7634 174.564 71.6612 174.564 71.6612 174.667C71.5591 174.769 71.5591 174.871 71.4569 174.973C71.3548 175.075 71.3548 175.177 71.2526 175.279C71.2526 175.279 71.2526 175.382 71.1505 175.382C71.0483 175.484 71.0483 175.586 70.9461 175.586L70.844 175.688C70.844 175.688 70.844 175.688 70.7418 175.79L70.6397 175.892C70.5375 175.892 70.5375 175.995 70.4353 175.995C70.4353 175.995 70.3332 175.995 70.3332 176.097C70.3332 176.097 70.231 176.199 70.1289 176.199C70.0267 176.199 69.9246 176.199 69.8224 176.301C69.8224 176.301 69.8224 176.301 69.7203 176.301H69.6181H69.516C69.516 176.301 69.516 176.301 69.4138 176.301C69.6181 175.28 69.7202 174.258 69.8224 173.236C69.8224 172.726 69.4138 172.624 69.1073 172.828C68.5966 173.032 68.3922 173.543 68.3922 174.054C68.3922 174.564 68.2901 175.177 68.1879 175.688C68.0858 175.586 67.9836 175.484 67.8815 175.382C67.7794 175.279 67.6772 175.075 67.5751 174.973ZM77.7903 135.542C78.1989 135.338 78.6075 135.134 79.0161 134.929C79.2204 134.827 79.4247 134.725 79.6291 134.725C79.7312 134.725 79.8334 134.623 79.9355 134.623C80.0377 134.623 80.0377 134.623 80.1398 134.521C80.1398 134.623 80.3441 134.623 80.4463 134.623C80.957 134.419 81.4678 134.316 82.0807 134.214C82.1829 134.214 82.1829 134.214 82.285 134.214C82.3872 134.214 82.3872 134.214 82.3872 134.214C82.4893 134.214 82.5915 134.214 82.6936 134.214C82.8979 134.214 83.1022 134.214 83.3065 134.214C83.5109 134.214 83.7151 134.316 83.9195 134.316H84.0216C84.1238 134.316 84.2259 134.419 84.2259 134.419C84.3281 134.521 84.5324 134.521 84.6345 134.623C84.7367 134.623 84.7367 134.725 84.8389 134.725L84.941 134.827C85.0432 134.929 85.1453 135.031 85.1453 135.134V135.236C85.1453 135.338 85.1453 135.338 85.2475 135.44V135.542V135.644V135.747C85.2475 135.747 85.2475 135.747 85.2475 135.849C85.2475 135.951 85.1453 136.155 85.2475 135.951C85.3496 135.747 85.2475 135.951 85.2475 136.053C85.2475 136.155 85.1453 136.257 85.1453 136.257L85.2475 136.155C85.2475 136.155 85.2475 136.257 85.1453 136.257C85.0432 136.36 85.0432 136.36 84.941 136.462C84.8389 136.564 84.8389 136.564 84.7367 136.666C84.7367 136.666 84.7367 136.666 84.6345 136.666C84.5324 136.768 84.4302 136.768 84.3281 136.87C84.2259 136.972 84.1238 136.972 84.0216 136.972C84.0216 136.972 83.9195 136.972 83.9195 137.075H83.8173C83.613 137.177 83.3066 137.279 83.1023 137.279C82.7958 137.381 82.5915 137.381 82.285 137.483C81.9786 137.585 81.6721 137.585 81.3657 137.585H81.2635C81.1614 137.585 81.0592 137.585 81.0592 137.585C80.8549 137.585 80.6506 137.585 80.4463 137.585C79.6291 137.585 78.914 137.585 78.0968 137.483C77.9946 137.483 77.8925 137.483 77.7904 137.483C77.8925 137.279 77.9947 137.177 78.0968 136.87C78.199 136.564 78.3011 135.849 77.7904 135.849C77.586 135.849 77.3818 135.849 77.1774 135.849C77.3817 135.747 77.586 135.644 77.7903 135.542ZM85.4517 117.257C85.5539 117.155 85.656 117.155 85.7582 117.053C86.0646 116.848 86.2689 116.848 86.4732 116.746C88.312 116.133 89.8442 116.133 91.3765 116.338C93.6239 116.644 96.0755 117.666 97.1992 119.811C97.1992 119.913 97.3014 119.913 97.3014 120.015C97.3014 120.117 97.4035 120.219 97.4035 120.322C97.5057 120.526 97.5057 120.73 97.6079 120.934C97.6079 121.037 97.6079 121.037 97.6079 121.139C97.6079 121.241 97.6079 121.343 97.6079 121.445C97.6079 121.547 97.6079 121.547 97.6079 121.65V121.752C97.6079 121.854 97.6079 121.854 97.6079 121.854V121.956C97.6079 122.058 97.5057 122.16 97.5057 122.262C97.5057 122.365 97.4035 122.365 97.5057 122.262C97.5057 122.262 97.5057 122.262 97.4035 122.262C97.4035 122.262 97.4035 122.365 97.3014 122.365C97.1992 122.467 97.1992 122.467 97.0971 122.569C97.0971 122.569 97.1992 122.569 97.0971 122.671C96.9949 122.773 96.9949 122.773 96.8927 122.875C96.8927 122.875 96.7906 122.978 96.6884 122.978C96.5863 123.08 96.4841 123.08 96.382 123.182C96.382 123.182 96.2798 123.182 96.2798 123.284C96.0755 123.386 96.382 123.182 96.1777 123.284C95.9734 123.386 95.6669 123.488 95.4626 123.488C94.9518 123.59 94.4411 123.59 93.8281 123.59C92.1937 123.488 90.5593 122.978 89.027 122.262C87.8011 121.752 86.5753 120.934 85.656 119.913C85.4516 119.606 85.3495 119.402 85.2474 119.198C86.0646 119.198 86.8818 119.198 87.5969 119.198C88.5162 119.3 89.3335 117.359 88.4141 117.359C87.3925 117.359 86.371 117.359 85.3495 117.359C85.3496 117.359 85.656 117.053 85.4517 117.257ZM94.8497 97.0308V96.8265C94.8497 96.7244 94.8497 96.6222 94.9519 96.5201L95.0541 96.2136C95.0541 96.1114 95.0541 96.1114 95.1562 96.0093C95.2584 95.805 95.3605 95.6007 95.4627 95.2942C95.4627 95.2942 95.5648 95.0899 95.4627 95.1921C95.3605 95.3964 95.4627 95.1921 95.4627 95.0899C95.5648 94.9878 95.5648 94.8856 95.667 94.6813C95.7691 94.5792 95.7691 94.477 95.8713 94.3749C95.8713 94.2727 95.9734 94.2727 95.9734 94.1706C95.9734 94.1706 95.9734 94.1706 96.0756 94.0684L96.1778 93.9662C96.2799 93.8641 96.3821 93.7619 96.4842 93.6598C96.5864 93.5576 96.6885 93.4555 96.7907 93.3533L96.8928 93.2512C96.8928 93.2512 96.8928 93.2512 96.995 93.149L97.0971 93.0468L97.1993 92.9447C97.3014 92.8425 97.4036 92.7404 97.5057 92.6382C97.71 92.4339 98.0165 92.2296 98.2208 92.0253C98.323 92.0253 98.323 91.9231 98.4251 91.9231C98.5273 91.821 98.7316 91.7188 98.8337 91.7188C98.9359 91.6167 99.038 91.6167 99.1402 91.5145C100.264 90.9016 101.388 90.493 102.716 90.2887C103.022 90.2887 103.124 90.1866 103.431 90.1866C103.737 90.1866 103.941 90.1866 104.248 90.1866C104.35 90.1866 104.452 90.1866 104.554 90.2887C104.656 90.2887 104.656 90.2887 104.759 90.2887C104.759 90.2887 104.963 90.3909 104.861 90.2887C105.065 90.3909 105.269 90.3909 105.474 90.493C105.576 90.493 105.678 90.5952 105.678 90.6973L105.78 90.7995C105.882 90.9016 105.984 91.1059 106.087 91.2081C106.087 91.2081 106.087 91.3102 106.189 91.3102C106.189 91.4124 106.189 91.5145 106.291 91.6167V91.7189V91.821C106.291 91.9232 106.291 92.0253 106.189 92.1275C106.189 92.2296 106.189 92.2296 106.087 92.3318C106.087 92.4339 106.087 92.4339 105.984 92.5361C105.984 92.5361 105.882 92.7404 105.984 92.6382C106.087 92.4339 105.984 92.7404 105.882 92.7404C105.882 92.8426 105.78 92.8426 105.78 92.9447C105.78 93.0469 105.678 93.0469 105.678 93.149C105.678 93.149 105.678 93.2512 105.576 93.2512C105.474 93.3533 105.371 93.4555 105.371 93.5576C105.269 93.6598 105.167 93.8641 105.065 93.9662C104.963 94.0684 104.963 94.0684 104.861 94.1705L104.759 94.2727C103.328 95.6007 101.796 96.7243 100.06 97.6437C99.3444 98.0523 98.8337 98.2566 98.1186 98.4609C97.8122 98.5631 97.6079 98.6652 97.3014 98.6652C97.1993 98.6652 97.0971 98.6652 96.8928 98.7674H96.7907C96.7907 98.7674 96.7907 98.7674 96.6885 98.7674C96.4842 98.7674 96.2799 98.7674 96.0756 98.7674H95.9734C95.9734 98.7674 95.9734 98.7674 95.8713 98.7674C95.8713 98.7674 95.8713 98.7674 95.7691 98.7674C95.7691 98.7674 95.6669 98.7674 95.6669 98.6652C95.6669 98.6652 95.5648 98.6652 95.5648 98.5631C96.0755 98.2566 96.5863 97.9502 97.0971 97.7459C97.71 97.3372 98.0164 95.4985 96.9949 96.1114C96.2798 96.52 95.5648 96.9286 94.8497 97.3372C94.8497 97.2351 94.8497 97.133 94.8497 97.0308ZM79.2204 89.8802C79.1183 89.778 79.0161 89.6759 79.0161 89.6759C78.914 89.5737 78.914 89.5737 78.8118 89.4716C78.7097 89.2673 78.5054 89.063 78.4032 88.9608C78.3011 88.8586 78.3011 88.7565 78.1989 88.6543C78.1989 88.5522 78.1989 88.5522 78.0967 88.45C77.9946 88.2457 77.8924 87.9393 77.8924 87.735V87.6328C77.8924 87.5307 77.8924 87.3264 77.8924 87.2242C77.8924 87.1221 77.8924 86.9178 77.8924 86.8156V86.7134V86.6113C77.8924 86.5091 77.8924 86.3048 77.9946 86.2027C77.9946 86.1005 77.9946 85.9984 78.0967 85.9984C78.0967 85.9984 78.1989 85.6919 78.0967 85.8962C78.1989 85.5898 78.3011 85.1812 78.5053 84.8747C78.8118 84.0575 79.2204 83.3424 79.7312 82.6274C79.8333 82.5252 79.8333 82.5252 79.8333 82.5252C79.8333 82.423 79.9355 82.423 79.9355 82.423C80.0377 82.3209 80.1398 82.1166 80.2419 82.0144C80.3441 81.9123 80.4463 81.8101 80.5484 81.708C80.6505 81.6058 80.6505 81.6058 80.7527 81.5037C80.8549 81.4015 80.957 81.2994 81.0591 81.2994C81.0591 81.2994 81.0591 81.2994 81.1613 81.2994C81.1613 81.2994 81.1613 81.2994 81.1613 81.1972C81.2635 81.0951 81.3656 81.0951 81.4677 81.0951C81.2634 81.1972 81.5699 81.0951 81.6721 80.9929C81.7742 80.9929 81.8764 80.9929 81.8764 80.9929C81.8764 80.9929 81.8764 80.9929 81.9785 80.9929H82.0807C82.1829 80.9929 82.285 80.9929 82.285 80.9929H82.3872C83.1023 81.2994 83.613 82.0144 83.9195 82.7295C84.4302 83.9553 84.5324 85.1811 84.6345 86.5091C84.6345 86.9177 84.6345 87.3263 84.6345 87.6328C84.6345 88.0414 84.6345 88.1436 84.5324 88.45C84.5324 88.5522 84.5324 88.7565 84.4302 88.8586C84.4302 88.9608 84.3281 89.2672 84.4302 88.9608C84.4302 89.0629 84.3281 89.1651 84.3281 89.2672C84.3281 89.3694 84.1237 89.778 84.2259 89.4715C84.2259 89.5737 84.1237 89.6758 84.1237 89.778C84.1237 89.8802 83.9194 90.0845 84.1237 89.8802C84.0216 89.9823 84.0216 90.0845 83.9194 90.0845L83.8173 90.1866C83.7151 90.1866 83.7151 90.2888 83.613 90.3909C83.5108 90.4931 83.3065 90.5952 83.5108 90.4931C83.3065 90.5952 83.2043 90.6974 83 90.7995C83 90.7995 83 90.7995 82.8979 90.7995C82.7957 90.7995 82.6936 90.9017 82.5914 90.9017C82.3871 90.9017 82.285 91.0039 82.0807 91.0039H81.9785C81.8764 91.0039 81.8764 91.0039 81.7742 91.0039C81.7742 89.5737 81.8764 88.1436 82.0806 86.7135C82.285 85.3855 80.7527 86.2027 80.6505 87.0199C80.4462 88.2457 80.3441 89.4716 80.3441 90.6974C80.2419 90.6974 80.2419 90.5953 80.2419 90.5953C79.9355 90.2888 79.5269 90.0845 79.2204 89.8802ZM77.8924 48.8149C77.8924 48.7128 77.8924 48.7128 77.8924 48.7128C77.8924 48.6106 77.8924 48.6106 77.8924 48.5085C77.8924 48.4063 77.8924 48.4063 77.8924 48.3042C77.8924 48.202 77.8924 48.202 77.9946 48.0999C77.9946 47.9977 78.1989 47.6913 78.0968 47.8956C78.5054 47.3848 78.7097 47.1805 79.2204 46.7719C79.6291 46.4654 80.242 46.0568 80.8549 45.8525C82.285 45.1375 83.8173 44.7288 85.3496 44.3202C86.7797 44.3202 88.1077 44.1159 89.4357 44.3202C89.64 44.3202 89.7421 44.4224 89.8443 44.6267V44.7289C89.8443 44.7289 89.8443 44.7289 89.8443 44.831C89.8443 44.9332 89.8443 45.0353 89.8443 45.0353C89.8443 45.1375 89.8443 45.1375 89.8443 45.1375C89.7421 45.3418 89.7421 45.5461 89.64 45.7504C89.64 45.8526 89.5378 45.8526 89.5378 45.9547C89.4356 46.0569 89.4356 46.159 89.3335 46.2612C89.2313 46.4655 89.027 46.7719 88.9249 46.9762C88.7206 47.2827 88.7206 47.2827 88.5163 47.487C88.312 47.7934 88.1077 47.9977 87.9034 48.3042C87.4948 48.815 87.0862 49.2236 86.6775 49.6322C85.7582 50.4494 84.9409 51.1645 83.8173 51.6752C82.8979 52.0838 81.8764 52.3903 80.8549 52.186C80.1398 52.0838 79.629 51.6752 79.1183 51.1645C79.8333 50.7559 80.4462 50.3473 81.1613 50.0408C81.7742 49.7343 82.0807 47.7934 81.0591 48.4063C80.1398 48.9171 79.1183 49.4279 78.1989 50.0408C77.9946 49.6322 77.8924 49.3257 77.8924 48.8149ZM67.1665 47.5891C67.1665 47.487 67.0643 47.3848 67.0643 47.2827C66.9621 47.0784 66.9621 46.9762 66.86 46.7719C66.86 46.6697 66.86 46.5676 66.7578 46.4654V46.3633C66.7578 46.3633 66.7578 46.3633 66.7578 46.2611C66.7578 46.0568 66.7578 45.9547 66.7578 45.7504C66.7578 45.5461 66.7578 45.4439 66.7578 45.2396V45.1374V45.0353C66.7578 44.9331 66.7578 44.831 66.86 44.7288C66.86 44.6267 66.86 44.5245 66.9622 44.5245C66.9622 44.4224 66.9622 44.4224 67.0643 44.3202C67.0643 44.2181 67.1665 44.1159 67.1665 44.0138C67.1665 44.0138 67.1665 44.0138 67.2686 43.9116C67.3708 43.7073 67.4729 43.503 67.5751 43.2987C67.6772 43.0944 67.7794 42.7879 67.7794 42.4815C67.9837 42.2772 68.0858 42.0729 68.2901 41.8685C68.3923 41.6642 68.5966 41.5621 68.8009 41.3578L68.9031 41.2556C69.0052 41.1535 69.0052 41.1535 69.1074 41.0513C69.2095 40.9492 69.4138 40.7449 69.516 40.6427C69.6181 40.5406 69.6181 40.5406 69.7203 40.4384C69.7203 40.4384 69.8225 40.4384 69.8225 40.3363C69.9246 40.2341 70.1289 40.132 70.2311 40.132C70.3332 40.132 70.3332 40.0298 70.4354 40.0298C70.5375 40.0298 70.6397 39.9276 70.844 39.9276C70.9461 39.9276 70.9461 39.9276 71.0483 39.9276C71.1505 39.9276 71.1505 39.9276 71.1505 39.9276C71.1505 39.9276 71.1505 39.9276 71.1505 40.0298C71.1505 40.0298 71.2526 40.0298 71.2526 40.132C71.2526 40.132 71.2526 40.132 71.3548 40.2341L71.4569 40.3363C71.4569 40.3363 71.4569 40.3363 71.4569 40.4384C71.4569 40.5406 71.5591 40.6427 71.5591 40.847V40.9492C71.5591 41.0514 71.5591 41.0514 71.5591 41.1535C71.5591 41.3578 71.5591 41.5621 71.5591 41.7664C71.5591 41.7664 71.5591 41.7664 71.5591 41.8686C71.5591 41.8686 71.5591 41.8686 71.5591 41.9707C71.5591 42.0729 71.5591 42.2772 71.4569 42.3793C71.4569 42.6858 71.3548 42.8901 71.2526 43.1966C71.1505 43.503 71.1505 43.8095 71.0483 44.1159V44.2181C71.0483 44.3202 71.0483 44.4224 70.9461 44.4224C70.844 44.6267 70.844 44.831 70.7418 45.0353C70.6397 45.4439 70.5375 45.7504 70.3332 46.159C70.2311 46.3633 70.2311 46.4654 70.1289 46.6697C70.1289 46.7719 70.0267 46.7719 70.0267 46.8741C70.0267 46.8741 70.0267 46.9762 69.9246 46.9762C69.8224 47.2827 69.6181 47.487 69.516 47.7934C69.516 47.7934 69.516 47.7934 69.516 47.8956C69.4138 47.9977 69.4138 48.0999 69.3117 48.202L69.2095 48.3042C69.1073 48.4064 69.1073 48.4064 69.0052 48.5085C69.0052 47.3848 69.0052 46.2612 69.1073 45.1375C69.1073 44.6267 68.6987 44.5246 68.3923 44.7289C67.8815 45.0353 67.5751 45.5461 67.5751 46.0569C67.4729 46.6698 67.4729 47.2827 67.4729 47.9977C67.3707 47.8956 67.3707 47.7934 67.2686 47.6913C67.2686 47.6913 67.2686 47.5891 67.1665 47.5891ZM67.6772 31.9598C67.6772 31.8577 67.6772 31.8577 67.6772 31.9598C67.6772 31.8577 67.6772 31.7555 67.6772 31.7555C67.6772 31.6534 67.6772 31.6534 67.6772 31.5512C67.6772 31.4491 67.7794 31.3469 67.7794 31.2447C67.7794 31.1426 67.9837 30.9383 67.8815 31.0404C67.7794 31.1426 67.9837 30.8361 67.9837 30.8361C68.0859 30.734 68.0859 30.6318 68.188 30.5297C68.188 30.5297 68.188 30.5297 68.2902 30.4275C68.2902 30.4275 68.2902 30.4275 68.3923 30.3254L68.4945 30.2232C68.5966 30.1211 68.5966 30.0189 68.6988 29.9168C68.801 29.8146 68.9031 29.7124 69.0053 29.6103L69.1074 29.5081L69.2096 29.406C69.6182 28.9974 70.0268 28.5888 70.5375 28.2823C70.9461 27.9758 71.4569 27.6694 71.9677 27.3629C72.4784 27.0565 72.887 26.9543 73.3978 26.75C73.6021 26.6478 73.9085 26.6478 74.1129 26.5457H74.215C74.3172 26.5457 74.4193 26.5457 74.5215 26.5457C74.6236 26.5457 74.7258 26.5457 74.8279 26.5457H74.9301C75.0322 26.5457 75.0322 26.6479 75.1344 26.6479C74.9301 26.4436 75.0322 26.4436 75.0322 26.4436C75.3387 26.75 75.543 27.1586 75.6451 27.4651C75.6451 27.5672 75.7473 27.6694 75.7473 27.7715V27.8737C75.7473 27.9759 75.7473 28.078 75.7473 28.1802C75.7473 28.1802 75.7473 28.2823 75.7473 28.3845C75.7473 28.5888 75.6451 28.7931 75.6451 28.9974C75.7473 28.6909 75.6451 29.0995 75.6451 29.0995C75.6451 29.2017 75.543 29.3038 75.543 29.5081C75.543 29.5081 75.543 29.6103 75.4408 29.6103C75.3387 29.7125 75.3387 29.8146 75.2365 29.9168C75.1344 30.0189 75.1344 30.1211 75.0322 30.2232C75.0322 30.3254 75.0322 30.3254 74.93 30.3254C74.93 30.3254 74.93 30.3254 74.93 30.4275C74.8279 30.6318 74.6236 30.8361 74.5214 30.9383C74.4193 31.0405 74.4193 31.1426 74.3171 31.1426L74.215 31.2448L74.1128 31.3469C73.7042 31.7555 73.3977 32.062 72.9891 32.3684C72.887 32.3684 72.887 32.4706 72.7848 32.4706C72.6826 32.5728 72.5805 32.5728 72.4784 32.6749C72.274 32.7771 72.0698 32.9814 71.8654 33.0835C71.6611 33.1857 71.4568 33.2878 71.2525 33.39C71.2525 33.39 71.0482 33.4921 71.1504 33.39H71.0482C70.946 33.39 70.8439 33.4921 70.7418 33.4921C70.5374 33.5943 70.3332 33.5943 70.1288 33.5943C70.0267 33.5943 69.9245 33.5943 69.8224 33.6964C69.6181 33.6964 69.8224 33.6964 69.6181 33.6964C69.4138 33.6964 69.3116 33.6964 69.1073 33.6964C69.0052 33.6964 68.903 33.6964 68.903 33.6964H68.8008C68.6987 33.5943 68.4944 33.5943 68.3922 33.4921C68.3922 33.4921 68.1879 33.2878 68.2901 33.39C68.4944 33.2878 68.8008 33.1857 69.0052 32.9814C69.6181 32.7771 70.0267 30.9383 68.903 31.3469C68.4944 31.5512 68.0859 31.7555 67.6772 31.9598ZM60.833 26.5458C60.118 26.035 59.7093 25.1156 59.4029 24.2984C58.6878 22.2554 58.6878 19.9059 59.1986 17.7607C59.3008 17.1477 59.4029 16.8413 59.6072 16.2284C59.6072 16.1262 59.8115 15.8198 59.7094 16.0241C59.7094 15.9219 59.8115 15.8198 59.9137 15.7176C59.9137 15.6155 60.118 15.4112 60.0158 15.6155C60.118 15.5133 60.118 15.4112 60.2201 15.4112C60.2201 15.4112 60.118 15.5133 60.3223 15.4112C60.3223 15.4112 60.3223 15.4112 60.4244 15.4112L60.6287 15.309C60.6287 15.2068 60.9352 15.4112 61.2417 15.6155C61.9567 16.2284 62.3653 17.2499 62.6718 18.0671C63.0804 19.1908 63.3868 20.4166 63.489 21.6424C63.5912 22.7661 63.6933 23.9919 63.489 25.1156C63.3868 25.6264 63.3868 25.9328 63.0804 26.4436C63.1826 26.2393 63.0804 26.4436 62.9782 26.5458C62.8761 26.7501 63.0804 26.4436 62.9782 26.6479L62.8761 26.7501C62.7739 26.8522 62.7739 26.8522 62.6718 26.8522C62.7739 25.4221 62.8761 24.0941 62.7739 22.664C62.5696 21.4382 61.1395 22.664 61.2417 23.4812C61.3438 24.6049 61.2417 25.6264 61.2417 26.7501C61.0373 26.6479 60.9352 26.6479 60.833 26.5458ZM47.0425 28.7931C46.6339 27.6694 46.2252 26.4436 46.0209 25.3199C45.9188 24.8092 45.9188 24.5027 45.9188 23.9919C46.0209 24.0941 46.1231 24.1962 46.2252 24.2984C46.9403 25.0135 47.4511 25.7285 47.9618 26.5458C49.1877 28.3845 50.3113 30.5297 50.6178 32.6749C50.72 33.1857 50.6178 33.4921 50.6178 33.9007C50.6178 33.9007 50.5156 33.9007 50.5156 34.0029C50.3113 33.9007 50.107 33.6964 49.9027 33.5943C48.5747 32.3684 47.6554 30.4275 47.0425 28.7931ZM47.8597 49.3257C45.5102 49.7343 42.9564 49.3257 40.709 48.7128C39.4832 48.4063 38.2574 47.8956 37.1337 47.1805C36.4186 46.6697 35.6014 45.8525 35.6014 45.1374C35.6014 45.0353 35.6014 44.831 35.6014 44.831C35.6014 44.6267 35.6014 44.6267 35.8057 44.4224C36.01 44.2181 36.4186 43.9116 36.8272 43.7073C38.1552 43.1966 39.5853 43.1966 40.9133 43.2987C43.9779 43.6052 47.1446 44.9332 49.0855 47.3848C48.4726 47.3848 47.9618 47.3848 47.3489 47.3848C46.6339 47.2827 45.8166 49.2236 46.6339 49.2236C47.2468 49.2236 47.8597 49.2236 48.4726 49.2236C48.2683 49.3257 48.064 49.3257 47.8597 49.3257ZM44.2844 66.7937C43.8758 66.8959 43.365 66.998 42.8542 66.998C41.6284 66.998 40.4026 66.7937 39.1767 66.4873C36.2143 65.6701 33.2519 63.8313 31.8218 61.0732C31.9239 60.9711 32.1282 60.9711 32.1282 60.8689C32.8433 60.5624 33.967 60.4603 34.8864 60.4603C37.4402 60.4603 40.0961 60.9711 42.2413 62.299C43.1607 62.912 43.9779 63.627 44.5908 64.5464C44.2844 64.4442 43.9779 64.2399 43.6715 64.1378C42.8542 63.8313 41.9349 65.6701 42.6499 65.9765C43.2629 66.1808 43.8758 66.4873 44.4887 66.7938C44.3865 66.7937 44.3865 66.7937 44.2844 66.7937ZM41.9349 78.5413C42.037 78.4391 41.9349 78.4391 41.9349 78.5413ZM47.5532 79.2563C47.3489 79.3585 47.1446 79.4606 46.9403 79.5628H46.8382H46.736C46.6338 79.5628 46.5317 79.6649 46.3274 79.6649C46.0209 79.7671 45.8166 79.8692 45.5102 79.8692C44.8973 80.0735 44.1822 80.1757 43.5693 80.2778C43.4671 80.38 43.365 80.4821 43.1607 80.6864C43.0585 80.6864 42.8542 80.6864 42.8542 80.5843C42.7521 80.5843 42.7521 80.5843 42.6499 80.4821C42.5478 80.38 42.4456 80.38 42.3435 80.2778L42.2413 80.1757C42.1392 80.0735 42.037 79.9714 42.037 79.8692L41.9349 79.767C41.9349 79.767 42.037 79.9713 41.9349 79.8692V79.767C41.9349 79.6649 41.8327 79.5627 41.8327 79.4606V79.3584V79.2563V79.1541V79.052C41.8327 78.9498 41.8327 78.9498 41.8327 78.8477C41.8327 78.7455 41.8327 78.7455 41.8327 78.7455C41.8327 78.7455 41.8327 78.6433 41.9349 78.6433C41.9349 78.5412 42.037 78.5412 42.037 78.439C42.037 78.439 42.1392 78.3369 42.1392 78.2347C42.1392 78.2347 42.3435 77.9283 42.2413 78.1326L42.3435 78.0304C42.4456 78.0304 42.4456 77.9283 42.5478 77.9283C42.5478 77.9283 42.6499 77.9283 42.6499 77.8261C42.7521 77.7239 42.4456 77.9283 42.5478 77.8261C42.6499 77.8261 42.7521 77.7239 42.7521 77.7239C42.8542 77.7239 42.8542 77.6218 42.9564 77.6218C43.0586 77.6218 43.2629 77.5196 43.0586 77.5196C43.2629 77.4175 43.4672 77.4175 43.5693 77.3153C43.7736 77.3153 43.9779 77.2132 44.0801 77.2132C44.1822 77.2132 44.1822 77.2132 44.2844 77.2132H44.3865C44.4887 77.2132 44.693 77.2132 44.7951 77.2132C45.3059 77.2132 45.8167 77.2132 46.2253 77.3153C46.4296 77.3153 46.6339 77.4175 46.8382 77.4175C46.9403 77.4175 47.0425 77.4175 47.1446 77.5196C47.2468 77.5196 47.2468 77.5196 47.3489 77.5196C47.4511 77.5196 47.4511 77.5196 47.4511 77.6218C47.2468 77.8261 47.0425 78.1326 47.0425 78.439C47.0425 78.8477 47.2468 79.3585 47.5532 79.2563C47.6554 79.1542 47.7575 79.1542 47.7575 79.1542C47.6554 79.1542 47.6554 79.1542 47.5532 79.2563ZM47.3489 108.88C46.4296 106.429 46.0209 103.466 46.2252 100.913C46.3274 100.708 46.4295 100.504 46.4295 100.402C46.4295 100.095 46.5317 99.7889 46.5317 99.3803C46.5317 99.2782 46.6339 99.0738 46.6339 98.9717C46.6339 98.8695 46.6339 98.8695 46.736 98.7674C46.736 98.6652 46.8382 98.5631 46.8382 98.4609C46.9403 98.1545 46.736 98.5631 46.8382 98.3588L46.9403 98.1545C46.9403 98.1545 46.9403 98.1545 46.8382 98.2566L46.9403 98.1545C46.9403 98.1545 46.9403 98.1545 47.0425 98.0523C47.1447 98.0523 47.1447 98.0523 47.1447 98.0523C47.1447 98.0523 47.1447 98.0523 47.2468 98.0523H47.349C47.4511 98.0523 47.4511 98.0523 47.5533 98.0523H47.6554C47.7576 98.0523 47.7576 98.1545 47.8597 98.1545C47.9619 98.2566 48.1662 98.3588 48.2683 98.4609C48.1662 98.3588 48.3705 98.5631 48.3705 98.5631C48.4727 98.6653 48.4727 98.7674 48.5748 98.7674C48.8813 99.176 49.0856 99.4825 49.2899 99.9932C49.8006 100.913 50.1071 102.241 50.2092 103.364C50.4135 104.897 50.4135 106.429 50.2092 107.961C50.1071 108.37 50.1071 108.778 50.0049 109.187C50.0049 109.391 49.9028 109.596 49.9028 109.8C49.9028 109.902 49.9028 110.004 49.8006 110.106C49.8006 110.208 49.8006 110.208 49.8006 110.208C49.6984 110.413 49.5963 110.719 49.4941 110.924C49.4941 111.026 49.392 111.128 49.4941 111.026C49.5963 109.698 49.6984 108.268 49.8006 106.94C49.8006 106.429 49.392 106.327 49.0855 106.531C48.5748 106.633 48.2683 107.348 48.2683 107.757C48.2683 108.676 48.1662 109.493 48.064 110.413C47.6554 109.902 47.4511 109.391 47.3489 108.88ZM28.4508 106.122C27.8378 105.407 27.3271 104.692 26.8163 103.875C26.3056 102.853 25.7948 101.832 25.5905 100.708C25.4883 100.198 25.3862 99.6868 25.3862 99.176C25.3862 99.0738 25.3862 98.9717 25.3862 98.9717C25.8969 99.2782 26.3056 99.7889 26.7142 100.198C27.8379 101.526 28.8594 103.16 29.4723 104.794C29.5744 105.203 29.6766 105.612 29.7787 106.02V106.122C29.7787 106.225 29.7787 106.327 29.7787 106.429C29.7787 106.531 29.7787 106.633 29.7787 106.633V106.735C29.7787 106.837 29.7787 106.837 29.7787 106.837C29.7787 106.837 29.7787 106.837 29.7787 106.94C29.4723 106.94 29.4723 106.94 29.1658 106.735C28.8594 106.531 28.6551 106.327 28.4508 106.122ZM30.0852 132.171C28.3486 132.171 26.612 131.865 24.9776 131.456C23.7518 131.048 22.5259 130.537 21.4023 129.72C21.0958 129.413 20.7893 129.107 20.4829 128.698C20.3807 128.494 20.2786 128.392 20.1764 128.187C20.1764 128.187 20.1764 128.085 20.0743 128.085C20.0743 127.983 19.9721 127.881 19.9721 127.779C19.9721 127.676 19.87 127.574 19.87 127.472V127.37V127.268V127.166V127.064C19.9721 126.859 19.87 127.166 19.87 127.166L19.9721 127.064C19.9721 127.064 20.0743 126.961 20.0743 126.859C19.9721 126.859 19.9721 126.961 20.1764 126.859L20.2786 126.757L20.3807 126.655C20.4829 126.553 20.585 126.553 20.6872 126.451C20.6872 126.451 20.7894 126.451 20.7894 126.348H20.8915C20.9937 126.348 21.0958 126.246 21.198 126.246C21.913 126.144 22.4238 126.144 23.0367 126.144C25.5905 126.246 28.0422 127.268 29.9831 128.8C30.4938 129.209 31.0046 129.719 31.4132 130.23C30.8003 130.026 30.0852 129.822 29.4723 129.617C28.6551 129.311 27.6336 131.15 28.4508 131.354C29.268 131.66 29.9831 131.865 30.8003 132.171C30.596 132.171 30.3916 132.171 30.0852 132.171ZM43.4671 147.188C43.365 147.29 43.2628 147.29 43.1607 147.392H43.0585C42.9564 147.392 42.8542 147.494 42.8542 147.494C42.5478 147.596 42.2413 147.698 41.8327 147.801C41.1176 148.005 40.4026 148.107 39.5853 148.209C39.0746 148.311 38.4617 148.311 37.8488 148.311C37.338 148.311 36.9294 148.209 36.5208 148.107H36.4186C36.3165 148.107 36.2143 148.005 36.1122 148.005C36.01 147.903 35.8057 147.8 35.7036 147.8C35.6014 147.8 35.6014 147.698 35.4993 147.698L35.3971 147.596C35.2949 147.494 35.1928 147.392 35.1928 147.29C35.1928 147.29 35.1928 147.188 35.0906 147.188C35.0906 147.085 35.0906 147.085 34.9885 146.983V146.881V146.779V146.677C34.9885 146.677 34.9885 146.677 34.9885 146.575C34.9885 146.472 34.9885 146.472 35.0906 146.37C35.0906 146.268 35.1928 146.268 35.1928 146.166C35.295 146.064 35.295 146.064 35.3971 145.962L35.4993 145.86C35.4993 145.86 35.4993 145.86 35.6014 145.757C35.7036 145.655 35.7036 145.655 35.8057 145.553C35.8057 145.553 36.01 145.451 35.9079 145.553C35.8057 145.655 35.9079 145.553 36.01 145.553C36.2143 145.451 36.3165 145.349 36.5208 145.247C36.623 145.247 36.7251 145.144 36.8273 145.144C36.9294 145.144 36.9294 145.144 37.0316 145.042C37.5423 144.838 37.9509 144.736 38.4617 144.634C38.5638 144.634 38.7681 144.634 38.8703 144.532H38.9724C38.9724 144.532 39.0746 144.532 39.1767 144.532C39.4832 144.532 39.6875 144.429 39.8918 144.225C40.6069 144.225 41.3219 144.327 41.9349 144.532C41.9349 144.532 42.1392 144.634 42.037 144.532H42.1392C42.2413 144.532 42.3435 144.634 42.4456 144.634C42.6499 144.736 42.8542 144.838 42.9564 144.838C43.1607 144.94 43.365 145.144 43.5693 145.247C43.1607 145.144 42.6499 145.042 42.2413 144.94C41.5263 144.736 40.709 146.575 41.6284 146.779C42.2413 146.983 42.8542 147.085 43.4671 147.188ZM38.9724 178.038C38.9724 178.038 38.9724 178.038 38.8703 177.935C38.5638 177.629 38.3595 177.322 38.1552 176.914C38.1552 176.914 38.1552 176.812 38.0531 176.812C38.0531 176.812 38.0531 176.812 38.0531 176.71C38.0531 176.607 37.9509 176.505 37.9509 176.403C37.8487 176.199 37.7466 175.892 37.6444 175.586C37.5423 175.279 37.5423 175.075 37.4401 174.769C37.4401 174.667 37.338 174.462 37.338 174.36C37.338 174.258 37.338 174.258 37.338 174.258C37.338 174.258 37.338 174.258 37.338 174.156V174.054C37.2358 173.441 37.2358 172.828 37.2358 172.113C37.2358 172.011 37.2358 171.806 37.2358 171.704V171.602C37.2358 171.5 37.2358 171.398 37.2358 171.398C37.2358 171.091 37.338 170.785 37.4401 170.478C37.4401 170.274 37.5423 170.172 37.5423 170.07C37.6444 169.968 37.7466 169.763 37.7466 169.661C37.8487 169.252 37.9509 168.946 38.1552 168.537C38.2573 168.333 38.2573 168.231 38.3595 168.129C38.3595 168.129 38.3595 168.129 38.3595 168.027C38.3595 167.925 38.4617 167.822 38.4617 167.822C38.5638 167.72 38.5638 167.516 38.666 167.414C38.666 167.312 38.7681 167.312 38.7681 167.209C38.7681 167.209 38.7681 167.107 38.8703 167.107C38.9724 166.903 39.1767 166.699 39.381 166.494L39.4832 166.392C39.5853 166.29 39.6875 166.29 39.7896 166.188C39.7896 166.188 39.8918 166.188 39.8918 166.086C39.994 165.984 40.0961 165.984 40.1983 165.984C40.1983 165.984 40.1983 165.984 40.3004 165.984C40.4026 165.984 40.5047 165.881 40.6069 165.881H40.709C40.8112 165.881 40.9133 165.881 40.9133 165.881C41.0155 165.881 41.1176 165.881 41.1176 165.881H41.2198C41.322 165.984 41.5263 165.984 41.6284 166.086C41.7306 166.086 41.7306 166.188 41.8327 166.188L41.9349 166.29C42.037 166.392 42.2413 166.596 42.3435 166.699C42.4456 166.903 42.5478 167.005 42.6499 167.209C42.6499 167.209 42.7521 167.414 42.6499 167.312V167.414C42.6499 167.516 42.7521 167.618 42.7521 167.72C42.8542 167.924 42.8542 168.231 42.9564 168.435C42.9564 168.537 43.0586 168.742 43.0586 168.844V168.946C43.0586 169.048 43.0586 169.048 43.0586 169.15C43.1607 169.763 43.1607 170.478 43.0586 171.091V171.193C43.0586 171.296 43.0586 171.398 43.0586 171.5C43.0586 171.704 43.0586 171.908 42.9564 172.113C42.8542 172.521 42.8542 172.93 42.7521 173.236C42.7521 173.339 42.7521 173.441 42.6499 173.543C42.6499 173.543 42.5478 173.849 42.6499 173.747C42.5478 173.951 42.5478 174.156 42.4456 174.36C42.3435 174.769 42.1392 175.177 41.9349 175.586C41.8327 175.79 41.7306 175.995 41.7306 176.199C41.7306 176.199 41.7306 176.301 41.6284 176.301C41.6284 176.403 41.5263 176.505 41.5263 176.607C41.4241 176.812 41.3219 176.914 41.2198 177.118C41.2198 177.22 41.1176 177.22 41.1176 177.323L41.0155 177.425C41.0155 177.527 40.8112 177.731 40.709 177.731L40.6069 177.833C40.6069 177.833 40.6069 177.833 40.5047 177.935C40.4025 178.038 40.3004 178.14 40.3004 178.14C40.5047 176.914 40.709 175.79 40.9133 174.564C41.2198 173.339 39.6875 174.156 39.5853 174.973C39.381 175.995 39.2789 177.118 38.9724 178.038C38.9724 178.14 38.9724 178.14 38.9724 178.038ZM25.4883 179.366C25.5905 179.263 25.284 179.366 25.4883 179.366ZM22.2195 178.344C21.7087 178.038 21.1979 177.731 20.6872 177.323C20.3807 177.118 20.1764 176.914 19.9721 176.71C19.87 176.607 19.6657 176.505 19.5635 176.403C19.4614 176.403 19.4614 176.301 19.3592 176.301L19.2571 176.199C18.2355 175.279 17.4183 174.258 16.7032 173.032C16.4989 172.726 16.3968 172.419 16.1925 172.215C16.0903 172.011 15.886 172.011 15.6817 172.113C15.4774 171.602 15.2731 170.989 15.0688 170.478C14.9666 170.172 14.8645 169.763 14.7623 169.355C14.7623 169.15 14.6602 169.048 14.6602 168.844V168.742C14.6602 168.64 14.6602 168.537 14.6602 168.435C14.6602 168.129 14.6602 167.822 14.6602 167.516C14.6602 167.414 14.6602 167.414 14.6602 167.414C14.6602 167.414 14.6602 167.414 14.6602 167.312C14.6602 167.209 14.6602 167.005 14.7623 166.903C14.7623 166.801 14.7623 166.801 14.7623 166.699C14.7623 166.597 14.7623 166.597 14.8645 166.494C14.8645 166.392 14.9667 166.29 14.9667 166.29C14.9667 166.29 15.0688 166.29 15.0688 166.188C15.171 166.188 15.2731 166.188 15.3753 166.086C15.4774 166.086 15.4774 166.086 15.5796 166.086C15.6817 166.086 15.7839 166.086 15.886 166.188H15.9882C16.0904 166.188 16.0904 166.29 16.1925 166.29C16.499 166.392 16.8054 166.596 17.0097 166.699C17.7248 167.209 18.3377 167.822 18.9506 168.435C19.87 169.457 20.6872 170.478 21.4023 171.602C22.1173 172.623 22.8324 173.645 23.4453 174.667C23.7518 175.075 23.9561 175.586 24.1604 175.994C24.2625 176.199 24.3647 176.403 24.4668 176.505C24.569 176.607 24.4668 176.607 24.4668 176.505C24.4668 176.607 24.4668 176.607 24.569 176.71C24.569 176.812 24.6711 176.914 24.6711 177.016C24.8754 177.629 25.0797 178.242 25.2841 178.855V178.957V179.059C25.2841 179.161 25.2841 179.263 25.2841 179.366H25.1819H25.0797C24.9776 179.366 24.8754 179.366 24.7733 179.366C24.569 179.366 24.3647 179.263 24.1604 179.263C24.0582 179.263 23.9561 179.161 23.8539 179.161C23.7517 179.161 23.7517 179.161 23.6496 179.059C23.1388 178.855 22.7302 178.65 22.2195 178.344ZM21.4023 202.758C19.9721 202.656 18.6441 202.146 17.4183 201.533C16.1925 200.92 15.0688 200.205 14.1495 199.285C13.4344 198.57 12.7193 197.651 12.4129 196.834C12.3107 196.629 12.3107 196.425 12.2086 196.119V196.016C12.2086 195.914 12.2086 195.914 12.2086 195.812V195.71C12.2086 195.71 12.2086 195.71 12.2086 195.608C12.2086 195.608 12.2086 195.506 12.3107 195.506C12.2086 195.71 12.2086 195.608 12.3107 195.608L12.4129 195.506C12.4129 195.506 12.7193 195.301 12.6172 195.403C12.8215 195.301 13.0258 195.301 13.3322 195.199C13.7408 195.199 14.4559 195.301 15.0688 195.403C17.6226 195.914 19.9721 197.14 21.7087 199.081C22.2195 199.592 22.6281 200.205 22.9346 200.92C21.913 200.511 20.8915 200.102 19.9721 199.489C19.2571 198.979 18.2356 200.715 18.9506 201.124C20.0743 201.737 21.0958 202.248 22.3217 202.758C22.0152 202.758 21.7087 202.758 21.4023 202.758ZM68.3923 201.124C68.3923 201.022 68.3923 200.92 68.3923 200.818V200.715C68.3923 200.511 68.4945 200.205 68.4945 200C68.4945 199.898 68.4945 199.796 68.5966 199.796C68.5966 199.694 68.6988 199.49 68.6988 199.387C68.6988 199.285 68.9031 198.877 68.8009 199.183C68.9031 199.081 68.9031 198.877 69.0053 198.774C69.1074 198.468 69.3117 198.264 69.516 197.957C69.4139 198.162 69.516 197.957 69.6182 197.855C69.7203 197.753 69.7203 197.753 69.8225 197.651C69.9246 197.549 70.0268 197.344 70.1289 197.242C70.6397 196.629 71.0483 196.221 71.6612 195.71C72.2741 195.199 72.8871 194.791 73.6021 194.382C73.8064 194.28 73.9085 194.178 74.0107 193.973C74.9301 193.463 75.8494 193.156 76.871 193.258C77.6882 193.36 78.6076 193.667 79.1183 194.28C79.2205 194.382 79.4248 194.586 79.5269 194.791C79.6291 194.995 79.6291 194.995 79.7312 195.301C79.8334 195.506 79.8334 195.71 79.8334 195.914C79.8334 196.016 79.8334 196.119 79.8334 196.119C79.8334 196.221 79.8334 196.425 79.8334 196.527V196.629V196.731C79.8334 196.834 79.8334 196.936 79.7312 197.14C79.7312 197.242 79.7312 197.242 79.6291 197.344C79.6291 197.447 79.5269 197.651 79.4248 197.753C79.3226 197.957 79.5269 197.549 79.4248 197.855L79.3226 197.957C79.2204 198.059 79.2204 198.162 79.1183 198.366C79.1183 198.366 79.1183 198.366 79.0161 198.468L78.914 198.57C78.8118 198.775 78.7097 198.877 78.5054 198.979C78.3011 199.285 78.1989 199.285 77.8924 199.592C77.586 199.898 77.2795 200.102 76.9731 200.307C76.258 200.818 75.4408 201.226 74.6236 201.635C73.3978 202.248 71.9676 202.758 70.5375 202.758C70.0267 202.758 69.6181 202.656 69.3117 202.554C69.2095 202.452 69.1073 202.452 69.0052 202.35C69.7203 201.941 70.4353 201.43 71.1504 201.022C71.9676 200.511 71.8655 198.775 70.844 199.592C70.0267 200.205 69.2095 200.715 68.3923 201.124ZM47.7575 247.91C47.7575 240.861 48.2683 233.915 49.0855 226.969C49.0855 226.866 49.1877 226.662 49.1877 226.56C49.6984 221.963 50.4135 217.468 51.2307 212.872C49.5963 224.415 48.2683 236.162 47.7575 247.91ZM87.3926 185.597C87.6991 185.495 88.0055 185.495 88.2098 185.393C88.312 185.393 88.312 185.393 88.4142 185.393H88.5163C88.6185 185.393 88.8228 185.393 88.9249 185.393C89.2314 185.393 89.5378 185.393 89.9464 185.495C91.5809 185.699 93.1132 186.414 94.5433 187.231C94.6454 187.333 94.7476 187.333 94.8497 187.231C95.6669 187.742 96.2799 188.355 96.6885 189.274C96.5863 189.172 96.7906 189.376 96.7906 189.479C96.7906 189.581 96.8928 189.683 96.8928 189.785C96.8928 189.887 96.8928 189.989 96.9949 190.092V190.194V190.296C96.9949 190.398 96.9949 190.5 96.9949 190.602V190.704C96.9949 190.909 96.8928 191.113 96.8928 191.317C96.8928 191.317 96.8928 191.42 96.7906 191.42C96.6885 191.522 96.6885 191.522 96.7906 191.317C96.6885 191.42 96.6885 191.522 96.6885 191.624C96.6885 191.624 96.6885 191.726 96.5863 191.726C96.4841 191.828 96.4841 191.93 96.382 191.93L96.2798 192.032C96.1777 192.135 96.1777 192.135 96.0755 192.237L95.9734 192.339C95.769 192.441 95.5647 192.543 95.4626 192.645C95.3604 192.645 95.3604 192.645 95.2583 192.748C95.1561 192.748 95.054 192.85 94.9518 192.85C94.7475 192.952 94.5432 192.952 94.2368 192.952H94.1346C94.0324 192.952 94.0324 192.952 93.9303 192.952C93.8281 192.952 93.726 192.952 93.5217 192.952C92.2958 192.85 91.1722 192.339 90.1507 191.726C89.027 191.011 88.0055 190.092 87.2904 188.968C86.984 188.457 86.7796 188.253 86.6775 187.742C86.6775 187.64 86.5753 187.538 86.5753 187.538C87.1883 187.742 87.699 187.946 88.3119 188.151C89.1291 188.559 90.0485 186.721 89.3335 186.414C88.7206 186.21 88.0055 186.005 87.3926 185.597C87.4948 185.699 87.4948 185.699 87.3926 185.597ZM108.947 170.989C109.049 170.785 108.845 171.091 108.845 171.091L108.742 171.193C108.742 171.193 108.742 171.193 108.64 171.296C108.538 171.398 108.436 171.398 108.436 171.5C108.334 171.5 108.334 171.602 108.232 171.602C108.027 171.704 107.823 171.806 107.619 171.908C107.517 172.011 107.414 172.011 107.312 172.011C107.21 172.011 107.21 172.113 107.108 172.113C106.801 172.215 106.495 172.317 106.291 172.419C105.576 172.624 104.861 172.726 104.146 172.828C103.737 172.93 103.43 172.93 103.022 172.93C101.796 173.032 100.468 173.032 99.2422 172.726C99.14 172.726 99.14 172.726 99.0379 172.726H98.9358C98.8337 172.726 98.7315 172.624 98.6294 172.624C98.5272 172.521 98.3229 172.419 98.2208 172.317C98.2208 172.317 98.2208 172.215 98.1186 172.215C98.1186 172.215 98.1186 172.113 98.0165 172.113C98.0165 172.113 98.0165 172.011 98.0165 171.908L98.1186 171.806C98.2208 171.704 98.3229 171.602 98.4251 171.5C98.6294 171.296 98.9358 171.091 99.1401 170.887L99.2423 170.785C99.3445 170.785 99.3445 170.683 99.4466 170.683C99.6509 170.58 99.7531 170.478 99.9574 170.376C100.366 170.172 100.775 169.968 101.183 169.661C101.592 169.457 102 169.252 102.511 169.048C102.613 168.946 102.716 168.946 102.92 168.844C102.92 168.844 102.92 168.844 103.022 168.844C103.124 168.844 103.124 168.742 103.226 168.742C103.737 168.537 104.248 168.435 104.656 168.333C104.759 168.333 104.861 168.333 104.963 168.333C105.065 168.333 105.065 168.333 105.167 168.333C105.371 168.333 105.576 168.333 105.78 168.333C106.189 168.333 106.597 168.435 107.006 168.537C107.006 168.537 107.006 168.537 107.108 168.537H107.21C107.312 168.537 107.415 168.64 107.415 168.64C107.619 168.742 107.721 168.742 107.925 168.844C108.027 168.946 108.232 169.048 108.334 169.15C108.334 169.15 108.334 169.15 108.436 169.252C108.436 169.355 108.538 169.355 108.64 169.457C108.743 169.559 108.845 169.661 108.947 169.763C108.947 169.865 109.049 169.865 109.049 169.968V170.07C109.049 170.172 109.151 170.376 109.151 170.478V170.58C109.151 170.58 109.151 170.58 109.151 170.683C109.151 170.785 109.151 170.785 109.049 170.887C109.049 170.989 109.049 170.989 108.947 170.989C108.947 171.091 108.845 171.193 108.947 170.989Z" fill="var(--fill-0, #272727)"/>
<path id="Vector_13" d="M107.312 172.011C107.21 172.011 107.108 172.113 107.312 172.011Z" fill="var(--fill-0, #272727)"/>
<path id="Vector_14" d="M98.2207 171.704C98.2207 171.806 98.1186 171.806 98.2207 171.704Z" fill="var(--fill-0, #272727)"/>
<path id="Vector_15" d="M95.9734 192.339C96.0756 192.237 95.7691 192.441 95.9734 192.339Z" fill="var(--fill-0, #272727)"/>
<g id="Vector_16">
</g>
<path id="Vector_17" d="M69.516 169.252C69.4138 169.457 69.4138 169.355 69.516 169.252Z" fill="var(--fill-0, #272727)"/>
<path id="Vector_18" d="M71.1504 175.382C71.3547 175.075 71.1504 175.279 71.1504 175.382Z" fill="var(--fill-0, #272727)"/>
<path id="Vector_19" d="M67.3708 172.317C67.4729 172.215 67.3708 172.215 67.3708 172.317Z" fill="var(--fill-0, #272727)"/>
<path id="Vector_20" d="M42.8542 80.5843C42.7521 80.5843 42.6499 80.4821 42.8542 80.5843Z" fill="var(--fill-0, #272727)"/>
<path id="Vector_21" d="M79.9355 134.623C80.0377 134.623 79.7312 134.725 79.9355 134.623Z" fill="var(--fill-0, #272727)"/>
<g id="Vector_22">
</g>
</g>
</svg>
